<?xml version="1.0" encoding="UTF-8"?>
<svg xmlns="http://www.w3.org/2000/svg" xmlns:xlink="http://www.w3.org/1999/xlink" viewBox="0 0 96 96" width="96px" height="96px">
<defs>
<linearGradient id="linear0" gradientUnits="userSpaceOnUse" x1="86" y1="26.702999" x2="86" y2="140.274063" gradientTransform="matrix(0.55814,0,0,0.55814,0,0)">
<stop offset="0" style="stop-color:rgb(88.627452%,4.313726%,5.490196%);stop-opacity:1;"/>
<stop offset="1" style="stop-color:rgb(98.823529%,31.764707%,18.82353%);stop-opacity:1;"/>
</linearGradient>
<linearGradient id="linear1" gradientUnits="userSpaceOnUse" x1="104.551811" y1="26.702999" x2="104.551811" y2="140.274063" gradientTransform="matrix(0.55814,0,0,0.55814,0,0)">
<stop offset="0" style="stop-color:rgb(88.627452%,4.313726%,5.490196%);stop-opacity:1;"/>
<stop offset="1" style="stop-color:rgb(98.823529%,31.764707%,18.82353%);stop-opacity:1;"/>
</linearGradient>
<linearGradient id="linear2" gradientUnits="userSpaceOnUse" x1="112.875" y1="48.318562" x2="112.875" y2="57.856499" gradientTransform="matrix(1.5,0,0,1.5,0,0)">
<stop offset="0" style="stop-color:rgb(97.254902%,40.000001%,40.392157%);stop-opacity:1;"/>
<stop offset="1" style="stop-color:rgb(99.607843%,68.235296%,62.352943%);stop-opacity:1;"/>
</linearGradient>
</defs>
<g id="surface488401">
<path style=" stroke:none;fill-rule:nonzero;fill:url(#linear0);" d="M 86.390625 24.128906 C 85.964844 23.617188 85.25 23.453125 84.636719 23.722656 C 83.714844 24.128906 82.769531 24.492188 81.800781 24.800781 C 83.035156 23.25 83.992188 21.476562 84.613281 19.566406 C 84.800781 18.96875 84.609375 18.324219 84.121094 17.933594 C 83.636719 17.542969 82.960938 17.492188 82.425781 17.808594 C 79.761719 19.371094 76.917969 20.492188 73.964844 21.144531 C 70.867188 18.183594 66.671875 16.5 62.332031 16.5 C 53.078125 16.5 45.550781 23.96875 45.550781 33.144531 C 45.550781 33.75 45.582031 34.359375 45.648438 34.964844 C 34.535156 33.910156 24.214844 28.453125 17.109375 19.8125 C 16.796875 19.433594 16.332031 19.234375 15.835938 19.269531 C 15.347656 19.304688 14.90625 19.578125 14.65625 20 C 13.167969 22.519531 12.378906 25.421875 12.378906 28.390625 C 12.378906 32.0625 13.589844 35.558594 15.75 38.410156 C 15.3125 38.226562 14.882812 38.019531 14.460938 37.792969 C 13.996094 37.542969 13.433594 37.550781 12.980469 37.824219 C 12.523438 38.09375 12.246094 38.585938 12.246094 39.113281 L 12.246094 39.289062 C 12.246094 44.851562 15.050781 49.902344 19.425781 52.945312 C 19.410156 52.945312 19.390625 52.941406 19.371094 52.9375 C 18.847656 52.839844 18.324219 53.03125 17.976562 53.425781 C 17.632812 53.824219 17.519531 54.375 17.679688 54.875 C 19.453125 60.347656 23.902344 64.433594 29.335938 65.875 C 24.828125 68.53125 19.734375 69.917969 14.398438 69.917969 C 13.21875 69.917969 12.054688 69.851562 10.9375 69.714844 C 10.234375 69.625 9.578125 70.042969 9.34375 70.699219 C 9.105469 71.359375 9.359375 72.097656 9.953125 72.472656 C 17.21875 77.070312 25.597656 79.5 34.183594 79.5 C 62.34375 79.5 79.167969 56.820312 79.167969 34.894531 C 79.167969 34.488281 79.160156 34.085938 79.148438 33.679688 C 82.007812 31.546875 84.476562 28.941406 86.492188 25.925781 C 86.863281 25.371094 86.820312 24.640625 86.390625 24.128906 Z M 76.75 31.714844 C 76.332031 32.011719 76.09375 32.5 76.117188 33.011719 C 76.148438 33.632812 76.167969 34.261719 76.167969 34.894531 C 76.167969 55.34375 60.464844 76.5 34.183594 76.5 C 28.210938 76.5 22.34375 75.238281 16.9375 72.820312 C 23.277344 72.339844 29.234375 70.046875 34.300781 66.121094 C 34.800781 65.730469 35.003906 65.066406 34.804688 64.464844 C 34.601562 63.859375 34.042969 63.449219 33.40625 63.433594 C 28.335938 63.335938 23.800781 60.507812 21.484375 56.183594 C 23.160156 56.238281 24.789062 56.035156 26.398438 55.59375 C 27.070312 55.410156 27.527344 54.789062 27.503906 54.09375 C 27.476562 53.398438 26.976562 52.8125 26.296875 52.675781 C 20.636719 51.546875 16.347656 47.015625 15.429688 41.503906 C 17.113281 42.105469 18.875 42.449219 20.632812 42.503906 C 21.320312 42.519531 21.90625 42.097656 22.105469 41.457031 C 22.3125 40.820312 22.066406 40.125 21.507812 39.753906 C 17.671875 37.207031 15.382812 32.957031 15.382812 28.390625 C 15.382812 26.6875 15.699219 25.015625 16.304688 23.460938 C 24.28125 32.199219 35.480469 37.5 47.375 38.101562 C 47.867188 38.132812 48.300781 37.925781 48.601562 37.566406 C 48.902344 37.203125 49.015625 36.71875 48.910156 36.261719 C 48.671875 35.234375 48.550781 34.1875 48.550781 33.148438 C 48.550781 25.621094 54.734375 19.5 62.335938 19.5 C 66.140625 19.5 69.800781 21.070312 72.382812 23.808594 C 72.738281 24.179688 73.253906 24.347656 73.757812 24.253906 C 75.835938 23.851562 77.867188 23.246094 79.832031 22.4375 C 78.738281 23.949219 77.335938 25.234375 75.691406 26.210938 C 75.082031 26.574219 74.808594 27.3125 75.039062 27.984375 C 75.269531 28.65625 75.933594 29.082031 76.640625 28.988281 C 78.070312 28.8125 79.46875 28.550781 80.835938 28.203125 C 79.589844 29.5 78.226562 30.671875 76.75 31.714844 Z M 76.75 31.714844 "/>
<path style=" stroke:none;fill-rule:nonzero;fill:url(#linear1);" d="M 46.15625 68.679688 L 47.089844 71.527344 C 57.773438 68.039062 66.324219 59.65625 70.550781 48.535156 L 67.75 47.46875 C 65.453125 53.507812 59.597656 64.289062 46.15625 68.679688 Z M 46.15625 68.679688 "/>
<path style=" stroke:none;fill-rule:nonzero;fill:url(#linear2);" d="M 66 30 C 66 31.65625 64.65625 33 63 33 C 61.34375 33 60 31.65625 60 30 C 60 28.34375 61.34375 27 63 27 C 64.65625 27 66 28.34375 66 30 Z M 66 30 "/>
</g>
</svg>
